<?xml version="1.0" encoding="utf-8"?>
<!-- Generator: Adobe Illustrator 16.0.0, SVG Export Plug-In . SVG Version: 6.00 Build 0)  -->
<!DOCTYPE svg PUBLIC "-//W3C//DTD SVG 1.1//EN" "http://www.w3.org/Graphics/SVG/1.1/DTD/svg11.dtd">
<svg version="1.1" id="Capa_1" xmlns="http://www.w3.org/2000/svg" xmlns:xlink="http://www.w3.org/1999/xlink" x="0px" y="0px"
	 width="600px" height="600px" viewBox="0 0 600 600" enable-background="new 0 0 600 600" xml:space="preserve">
<path fill="#E1F1FA" d="M600,264.844c0,87.188-72.188,158.203-159.375,158.203H141.797C64.101,423.047,0,360.116,0,282.422
	c0-45.001,22.969-87.188,59.53-113.556c24.962-17.929,53.79-26.718,84.024-26.367C151.991,63.397,218.438,0,300,0
	c67.852,0,127.266,44.413,149.063,107.694C533.086,112.969,600,181.172,600,264.844z"/>
<path fill="#BFE1FF" d="M600,264.844c0,87.188-72.188,158.203-159.375,158.203H300V0c67.852,0,127.266,44.413,149.063,107.694
	C533.086,112.969,600,181.172,600,264.844z"/>
<path fill="#79CFE2" d="M421.642,470.273c-2.813-6.681-9.142-10.898-16.173-10.898h-48.867l30.938-154.688
	c2.109-10.898-6.328-21.093-17.228-21.093H229.688c-10.898,0-19.336,10.194-17.227,21.093l30.938,154.688h-48.867
	c-15.82,0-23.554,18.983-12.304,29.882l105.469,105.469C290.859,598.242,295.43,600,300,600c4.57,0,9.141-1.758,12.304-5.274
	l105.47-105.469C423.047,484.335,424.452,476.953,421.642,470.273z"/>
<path fill="#7BBCCF" d="M417.772,489.257L312.304,594.726C309.141,598.242,304.57,600,300,600V283.594h70.313
	c10.898,0,19.337,10.194,17.228,21.094l-30.938,154.688h48.867c7.031,0,13.359,4.219,16.173,10.898
	C424.452,476.953,423.047,484.335,417.772,489.257z"/>
</svg>
