<?xml version="1.0" encoding="utf-8"?>
<!-- Generator: Adobe Illustrator 16.0.0, SVG Export Plug-In . SVG Version: 6.00 Build 0)  -->
<!DOCTYPE svg PUBLIC "-//W3C//DTD SVG 1.1//EN" "http://www.w3.org/Graphics/SVG/1.1/DTD/svg11.dtd">
<svg version="1.1" id="Capa_1" xmlns="http://www.w3.org/2000/svg" xmlns:xlink="http://www.w3.org/1999/xlink" x="0px" y="0px"
	 width="600px" height="600px" viewBox="0 0 600 600" enable-background="new 0 0 600 600" xml:space="preserve">
<path fill="#7BBCCF" d="M529.688,441.797v70.313c0,9.843-7.732,17.577-17.577,17.577c-9.846,0-17.578-7.734-17.578-17.577v-70.313
	c0-9.845-7.733-17.578-17.578-17.578H317.578v87.892c0,9.843-7.733,17.577-17.578,17.577c-9.845,0-17.578-7.734-17.578-17.577
	v-87.892H123.047c-9.845,0-17.578,7.733-17.578,17.578v70.313c0,9.843-7.733,17.577-17.578,17.577
	c-9.845,0-17.578-7.734-17.578-17.577v-70.313c0-29.181,23.554-52.734,52.734-52.734h159.375v-55.078
	c0-9.844,7.733-17.577,17.578-17.577c9.845,0,17.578,7.733,17.578,17.577v55.078h159.375
	C506.134,389.063,529.688,412.616,529.688,441.797z"/>
<path fill="#58A5B7" d="M529.688,441.797v70.313c0,9.843-7.732,17.577-17.577,17.577c-9.846,0-17.578-7.734-17.578-17.577v-70.313
	c0-9.845-7.733-17.578-17.578-17.578H317.578v87.892c0,9.843-7.733,17.577-17.578,17.577V316.406
	c9.845,0,17.578,7.732,17.578,17.578v55.078h159.375C506.134,389.063,529.688,412.616,529.688,441.797z"/>
<g>
	<path fill="#7ECEE0" d="M123.047,600H52.734C23.655,600,0,576.345,0,547.266l0,0c0-29.078,23.655-52.733,52.734-52.733h70.313
		c29.079,0,52.734,23.655,52.734,52.733l0,0C175.781,576.345,152.126,600,123.047,600z"/>
	<path fill="#7ECEE0" d="M335.156,494.531h-70.313c-29.181,0-52.734,23.554-52.734,52.733l0,0c0,29.18,23.554,52.734,52.734,52.734
		h70.313c29.181,0,52.733-23.556,52.733-52.734l0,0C387.891,518.085,364.337,494.531,335.156,494.531z"/>
</g>
<g>
	<path fill="#4D8B99" d="M547.266,600h-70.313c-29.079,0-52.734-23.655-52.734-52.734l0,0c0-29.078,23.655-52.733,52.734-52.733
		h70.313c29.079,0,52.734,23.655,52.734,52.733l0,0C600,576.345,576.345,600,547.266,600z"/>
	<path fill="#4D8B99" d="M387.891,547.266L387.891,547.266c0,29.18-23.554,52.734-52.733,52.734H300V494.531h35.156
		C364.337,494.531,387.891,518.085,387.891,547.266z"/>
</g>
<path fill="#E1F1FA" d="M475.781,52.734v175.781H124.219V52.734c0-19.336,15.82-35.156,35.156-35.156h281.25
	C459.961,17.578,475.781,33.398,475.781,52.734z"/>
<g>
	<path fill="#354144" d="M386.133,326.249l-35.156-70.313c-3.164-5.976-9.141-9.843-15.819-9.843h-70.313
		c-6.68,0-12.656,3.867-15.82,9.843l-35.156,70.313c-1.405,3.165-2.109,6.328-1.405,9.845H387.54
		C388.242,332.577,387.539,329.414,386.133,326.249z"/>
	<path fill="#7ECEE0" d="M440.625,0h-281.25c-29.181,0-52.734,23.554-52.734,52.734v158.203l45.351,35.156h294.608l46.76-35.156
		V52.734C493.359,23.554,469.806,0,440.625,0z M458.203,210.938H141.797V52.734c0-9.845,7.733-17.578,17.578-17.578h281.25
		c9.845,0,17.578,7.733,17.578,17.578V210.938z"/>
</g>
<path fill="#293335" d="M387.539,336.094H300v-90h35.156c6.68,0,12.656,3.867,15.819,9.843l35.156,70.313
	C387.539,329.414,388.242,332.577,387.539,336.094z"/>
<path fill="#D9EDFC" d="M475.781,52.734v175.781H300V17.578h140.625C459.961,17.578,475.781,33.398,475.781,52.734z"/>
<path fill="#6FBCCE" d="M493.359,52.734v158.203l-46.76,35.156H300v-35.156h158.203V52.734c0-9.845-7.733-17.578-17.578-17.578H300
	V0h140.625C469.806,0,493.359,23.554,493.359,52.734z"/>
<g>
	<path fill="#7BBCCF" d="M106.641,210.938v17.578c0,29.179,23.554,52.734,52.734,52.734h281.25
		c29.181,0,52.734-23.556,52.734-52.734v-17.578H106.641z"/>
	<path fill="#313C3F" d="M423.047,333.984c0,9.843-7.732,17.578-17.578,17.578H194.531c-9.845,0-17.578-7.735-17.578-17.578
		c0-9.846,7.733-17.578,17.578-17.578h210.938C415.313,316.406,423.047,324.141,423.047,333.984z"/>
</g>
<g>
	<path fill="#7BBCCF" d="M440.625,281.25H300v-70.313h193.359v17.578C493.359,257.694,469.806,281.25,440.625,281.25z"/>
	<path fill="#151C1E" d="M423.047,333.984c0,9.843-7.732,17.578-17.578,17.578H300v-35.156h105.469
		C415.313,316.406,423.047,324.141,423.047,333.984z"/>
</g>
</svg>
