<?xml version="1.0" encoding="utf-8"?>
<!-- Generator: Adobe Illustrator 16.0.0, SVG Export Plug-In . SVG Version: 6.00 Build 0)  -->
<!DOCTYPE svg PUBLIC "-//W3C//DTD SVG 1.1//EN" "http://www.w3.org/Graphics/SVG/1.1/DTD/svg11.dtd">
<svg version="1.1" id="Capa_1" xmlns="http://www.w3.org/2000/svg" xmlns:xlink="http://www.w3.org/1999/xlink" x="0px" y="0px"
	 width="600px" height="600px" viewBox="0 0 600 600" enable-background="new 0 0 600 600" xml:space="preserve">
<path fill="#99D3E0" d="M582.256,345.585l-42.89-86.132c-1.057-74.181-33.751-144.493-89.648-193.711
	C401.554,22.851,339.327,0,275.694,0c-11.603,0-22.853,0.702-34.452,2.109c-130.782,16.874-229.22,132.89-229.22,270v34.452
	c0,87.188,38.321,163.829,105.469,212.346v63.516c0,9.843,7.733,17.578,17.578,17.578h246.094c9.845,0,17.578-7.735,17.578-17.578
	v-55.078h52.733c48.517,0,87.892-39.375,87.892-87.891v-17.578c16.874-1.407,31.642-10.547,40.78-24.962
	C589.64,381.093,590.695,362.109,582.256,345.585z"/>
<path fill="#7BBCCF" d="M580.146,396.913c-9.14,14.415-23.906,23.555-40.78,24.962v17.578c0,48.516-39.375,87.891-87.892,87.891
	h-52.733v55.078c0,9.843-7.733,17.578-17.578,17.578H275.694V0c63.633,0,125.86,22.851,174.023,65.742
	c55.897,49.218,88.593,119.53,89.648,193.711l42.89,86.132C590.695,362.109,589.64,381.093,580.146,396.913z"/>
<path fill="#E1F1FA" d="M275.694,70.313c-16.874,0-34.452,2.461-52.383,7.031c-64.336,16.875-117.07,69.609-133.945,133.945
	c-18.283,68.905,0.352,139.568,49.569,189.141c36.914,36.914,85.781,56.603,136.758,56.603c94.571,0,166.289-64.688,186.329-140.978
	C496.477,187.382,399.445,70.313,275.694,70.313z"/>
<path fill="#BFE1FF" d="M462.022,316.055c-20.039,76.288-91.759,140.978-186.329,140.978V70.313
	C399.445,70.313,496.477,187.382,462.022,316.055z"/>
<path fill="#99D3E0" d="M192.954,311.256L157.798,276.1c-6.866-6.866-6.866-17.991,0-24.856l35.156-35.156
	c6.866-6.866,17.99-6.866,24.856,0c6.866,6.866,6.866,17.99,0,24.856l-22.729,22.729l22.729,22.729
	c6.866,6.866,6.866,17.991,0,24.856C210.943,318.123,199.82,318.123,192.954,311.256z"/>
<path fill="#7BBCCF" d="M333.579,311.256c-6.866-6.865-6.866-17.991,0-24.856l22.728-22.728l-22.729-22.729
	c-6.866-6.866-6.866-17.991,0-24.856c6.865-6.866,17.99-6.866,24.855,0l35.156,35.156c6.866,6.866,6.866,17.99,0,24.856
	l-35.156,35.156C351.568,318.123,340.445,318.123,333.579,311.256z"/>
<path fill="#99D3E0" d="M310.146,197.578l-34.453,137.813l-0.705,2.813c-1.758,8.085-9.141,13.359-16.874,13.359
	c-11.25,0-19.688-10.898-16.874-21.797l34.452-137.813l0.704-2.812c2.109-9.493,11.601-15.117,21.093-12.657
	C306.983,178.593,312.608,188.085,310.146,197.578z"/>
<path fill="#7BBCCF" d="M310.146,197.578l-34.453,137.813V191.952l0.704-2.812c2.109-9.493,11.601-15.117,21.093-12.657
	C306.983,178.593,312.608,188.085,310.146,197.578z"/>
</svg>
