<?xml version="1.0" encoding="utf-8"?>
<!-- Generator: Adobe Illustrator 16.0.0, SVG Export Plug-In . SVG Version: 6.00 Build 0)  -->
<!DOCTYPE svg PUBLIC "-//W3C//DTD SVG 1.1//EN" "http://www.w3.org/Graphics/SVG/1.1/DTD/svg11.dtd">
<svg version="1.1" id="Capa_1" xmlns="http://www.w3.org/2000/svg" xmlns:xlink="http://www.w3.org/1999/xlink" x="0px" y="0px"
	 width="600px" height="600px" viewBox="0 0 600 600" enable-background="new 0 0 600 600" xml:space="preserve">
<path fill="#3A97AD" d="M264.844,564.844H87.891c-9.716,0-17.578-7.861-17.578-17.578c0-9.716,7.862-17.578,17.578-17.578h176.953
	c9.716,0,17.578,7.862,17.578,17.578C282.422,556.982,274.56,564.844,264.844,564.844z"/>
<path fill="#117889" d="M512.109,564.844H335.156c-9.716,0-17.578-7.861-17.578-17.578c0-9.716,7.862-17.578,17.578-17.578h176.953
	c9.716,0,17.578,7.862,17.578,17.578C529.688,556.982,521.825,564.844,512.109,564.844z"/>
<path fill="#3A97AD" d="M317.578,439.453v72.656c0,9.843-7.733,17.578-17.578,17.578c-9.845,0-17.578-7.735-17.578-17.578v-72.656
	c0-9.845,7.733-17.578,17.578-17.578C309.845,421.875,317.578,429.608,317.578,439.453z"/>
<path fill="#117889" d="M317.578,439.453v72.656c0,9.843-7.733,17.578-17.578,17.578V421.875
	C309.845,421.875,317.578,429.608,317.578,439.453z"/>
<path fill="#7BBCCF" d="M300,494.531c-29.181,0-52.734,23.554-52.734,52.733S270.819,600,300,600
	c29.181,0,52.734-23.556,52.734-52.734C352.734,518.085,329.181,494.531,300,494.531z"/>
<path fill="#394C60" d="M547.266,600c-29.078,0-52.733-23.655-52.733-52.734c0-29.078,23.655-52.733,52.733-52.733
	c29.079,0,52.734,23.655,52.734,52.733C600,576.345,576.345,600,547.266,600z"/>
<path fill="#E1F1FA" d="M547.266,564.844c-9.691,0-17.578-7.886-17.578-17.578c0-9.691,7.887-17.578,17.578-17.578
	c9.692,0,17.578,7.887,17.578,17.578C564.844,556.958,556.958,564.844,547.266,564.844z"/>
<path fill="#7BBCCF" d="M52.734,600C23.655,600,0,576.345,0,547.266c0-29.078,23.655-52.733,52.734-52.733
	s52.734,23.655,52.734,52.733C105.468,576.345,81.813,600,52.734,600z"/>
<path fill="#E1F1FA" d="M52.734,564.844c-9.692,0-17.578-7.886-17.578-17.578c0-9.691,7.886-17.578,17.578-17.578
	s17.578,7.887,17.578,17.578C70.312,556.958,62.427,564.844,52.734,564.844z"/>
<g>
	<path fill="#394C60" d="M547.266,140.625H52.734c-9.845,0-17.578,7.733-17.578,17.578v70.313c0,9.843,7.733,17.578,17.578,17.578
		h494.531c9.846,0,17.578-7.735,17.578-17.578v-70.313C564.844,148.358,557.11,140.625,547.266,140.625z"/>
	<path fill="#394C60" d="M547.266,351.563H52.734c-9.845,0-17.578,7.733-17.578,17.578v35.156c0,29.179,23.554,52.734,52.734,52.734
		h424.219c29.181,0,52.733-23.557,52.733-52.734v-35.156C564.844,359.296,557.11,351.563,547.266,351.563z"/>
</g>
<path fill="#7BBCCF" d="M547.266,210.938H52.734C23.554,210.938,0,234.491,0,263.672v70.313c0,29.18,23.554,52.734,52.734,52.734
	h494.531c29.182,0,52.734-23.556,52.734-52.734v-70.313C600,234.491,576.446,210.938,547.266,210.938z"/>
<path fill="#14B3C4" d="M352.734,547.266C352.734,576.444,329.181,600,300,600V494.531
	C329.181,494.531,352.734,518.085,352.734,547.266z"/>
<path fill="#E1F1FA" d="M300,564.844c-9.692,0-17.578-7.886-17.578-17.578c0-9.691,7.886-17.578,17.578-17.578
	c9.692,0,17.578,7.887,17.578,17.578C317.578,556.958,309.692,564.844,300,564.844z"/>
<path fill="#E1F1FA" d="M317.578,547.266c0-9.691-7.886-17.578-17.578-17.578v35.156
	C309.692,564.844,317.578,556.958,317.578,547.266z"/>
<g>
	<path fill="#242B33" d="M564.844,158.203v70.313c0,9.843-7.732,17.578-17.578,17.578H300V140.625h247.266
		C557.11,140.625,564.844,148.358,564.844,158.203z"/>
	<path fill="#242B33" d="M564.844,369.141v35.156c0,29.179-23.554,52.734-52.733,52.734H300V351.563h247.266
		C557.11,351.563,564.844,359.296,564.844,369.141z"/>
</g>
<path fill="#117889" d="M600,263.672v70.313c0,29.18-23.554,52.734-52.734,52.734H300V210.938h247.266
	C576.446,210.938,600,234.491,600,263.672z"/>
<path fill="#7BBCCF" d="M547.266,0H52.734C23.554,0,0,23.554,0,52.734v70.313c0,29.179,23.554,52.734,52.734,52.734h494.531
	c29.182,0,52.734-23.556,52.734-52.734V52.734C600,23.554,576.446,0,547.266,0z"/>
<path fill="#117889" d="M600,52.734v70.313c0,29.179-23.554,52.734-52.734,52.734H300V0h247.266C576.446,0,600,23.554,600,52.734z"
	/>
<circle fill="#E1F1FA" cx="87.891" cy="87.891" r="17.578"/>
<g>
	<circle fill="#E1F1FA" cx="159.375" cy="87.891" r="17.578"/>
	<circle fill="#E1F1FA" cx="229.688" cy="87.891" r="17.578"/>
</g>
<path fill="#242B33" d="M512.109,105.469H335.156c-9.716,0-17.578-7.862-17.578-17.578c0-9.716,7.862-17.578,17.578-17.578h176.953
	c9.716,0,17.578,7.862,17.578,17.578C529.688,97.607,521.825,105.469,512.109,105.469z"/>
<circle fill="#E1F1FA" cx="87.891" cy="298.828" r="17.578"/>
<g>
	<circle fill="#E1F1FA" cx="159.375" cy="298.828" r="17.578"/>
	<circle fill="#E1F1FA" cx="229.688" cy="298.828" r="17.578"/>
</g>
<path fill="#242B33" d="M512.109,316.406H335.156c-9.716,0-17.578-7.862-17.578-17.578c0-9.716,7.862-17.578,17.578-17.578h176.953
	c9.716,0,17.578,7.862,17.578,17.578C529.688,308.544,521.825,316.406,512.109,316.406z"/>
</svg>
