<?xml version="1.0" encoding="utf-8"?>
<!-- Generator: Adobe Illustrator 16.0.0, SVG Export Plug-In . SVG Version: 6.00 Build 0)  -->
<!DOCTYPE svg PUBLIC "-//W3C//DTD SVG 1.1//EN" "http://www.w3.org/Graphics/SVG/1.1/DTD/svg11.dtd">
<svg version="1.1" id="Capa_1" xmlns="http://www.w3.org/2000/svg" xmlns:xlink="http://www.w3.org/1999/xlink" x="0px" y="0px"
	 width="600px" height="600px" viewBox="0 0 600 600" enable-background="new 0 0 600 600" xml:space="preserve">
<path fill="#E1F1FA" d="M600,263.672c0,87.188-72.188,158.203-159.375,158.203H141.797C64.101,421.875,0,358.943,0,281.25
	c0-45.001,22.969-87.188,59.53-113.556c24.962-17.929,53.79-26.718,84.024-26.367C151.991,62.226,218.438,0,300,0
	c67.852,0,127.266,43.241,149.063,106.522C533.086,111.797,600,180,600,263.672z"/>
<path fill="#BFE1FF" d="M600,263.672c0,87.188-72.188,158.203-159.375,158.203H300V0c67.852,0,127.266,43.241,149.063,106.522
	C533.086,111.797,600,180,600,263.672z"/>
<path fill="#7BBCCF" d="M447.305,249.843c-6.68-2.814-14.063-1.405-18.982,3.867c-30.938,30.938-85.079,30.938-116.018,0
	c-3.164-3.515-7.734-5.272-12.305-5.272c-4.571,0-9.141,1.758-12.304,5.272c-30.938,30.938-85.079,30.938-116.017,0
	c-4.921-5.272-12.304-6.68-18.983-3.867c-6.679,2.813-10.899,9.142-10.899,16.173v88.944c0,103.711,57.656,196.876,150.47,243.282
	c2.459,1.054,4.921,1.758,7.733,1.758c2.813,0,5.273-0.704,7.733-1.758c92.813-46.406,150.47-139.571,150.47-243.282v-88.944
	C458.203,258.984,453.984,252.656,447.305,249.843z"/>
<path fill="#44929E" d="M458.203,266.016v88.944c0,103.711-57.656,196.876-150.47,243.282c-2.46,1.054-4.921,1.758-7.733,1.758
	V248.438c4.57,0,9.141,1.758,12.304,5.272c30.938,30.938,85.079,30.938,116.018,0c4.921-5.272,12.304-6.68,18.982-3.867
	C453.983,252.656,458.203,258.984,458.203,266.016z"/>
<path fill="#E1F1FA" d="M382.969,353.202c-3.515-3.163-8.085-5.274-13.008-5.274c-21.797,0-42.89-4.568-62.577-13.71
	c-2.461-1.056-4.922-1.407-7.384-1.407s-4.922,0.353-7.384,1.407c-19.688,9.142-40.78,13.71-62.577,13.71
	c-4.922,0-9.493,2.111-13.008,5.274c-3.165,3.515-4.922,8.438-4.57,13.358c3.163,57.656,31.289,111.444,76.641,146.953
	c3.165,2.461,7.031,3.867,10.898,3.867s7.733-1.405,10.898-3.867c45.351-35.508,73.478-89.296,76.641-146.953
	C387.891,361.641,386.133,356.718,382.969,353.202z"/>
<path fill="#BFE1FF" d="M387.539,366.563c-3.163,57.656-31.289,111.444-76.641,146.953c-3.165,2.461-7.031,3.867-10.898,3.867
	v-184.57c2.461,0,4.922,0.353,7.384,1.408c19.688,9.141,40.78,13.709,62.577,13.709c4.922,0,9.493,2.111,13.008,5.274
	C386.133,356.718,387.891,361.641,387.539,366.563z"/>
</svg>
