<svg xmlns="http://www.w3.org/2000/svg" viewBox="0 0 575.43 386.06"><defs><style>.cls-1{isolation:isolate;}.cls-2{fill:#dadadb;}.cls-3{fill:#585964;}.cls-4{fill:#f5ead4;}.cls-5{fill:#bf2430;}.cls-6{fill:#bbdbea;}.cls-7{fill:#44929e;}.cls-8{fill:#fff;}.cls-9{fill:#7bbccf;}.cls-10{fill:#2494c6;}.cls-11{fill:#cee5ef;}.cls-12{fill:#fbf6ed;}.cls-13{fill:#d0c7ab;}.cls-14{fill:#c1c1c1;opacity:0.5;mix-blend-mode:multiply;}.cls-15{fill:#343643;}</style></defs><title>whitebox</title><g class="cls-1"><g id="Layer_1" data-name="Layer 1"><rect class="cls-2" x="186.94" y="200.88" width="120.74" height="169.8"/><path class="cls-3" d="M322.48,442.92H205.29c-6.4,0-11.59-4.3-11.59-9.6v-21.8c0-5.3,5.19-9.6,11.59-9.6H322.48c6.4,0,11.58,4.3,11.58,9.6v21.8C334.06,438.62,328.88,442.92,322.48,442.92Z" transform="translate(-16.57 -187.39)"/><path class="cls-3" d="M322.48,493.81H205.29c-6.4,0-11.59-4.3-11.59-9.6V462.42c0-5.31,5.19-9.6,11.59-9.6H322.48c6.4,0,11.58,4.29,11.58,9.6v21.79C334.06,489.51,328.88,493.81,322.48,493.81Z" transform="translate(-16.57 -187.39)"/><path class="cls-3" d="M322.48,544.7H205.29c-6.4,0-11.59-4.29-11.59-9.6V513.31c0-5.3,5.19-9.6,11.59-9.6H322.48c6.4,0,11.58,4.3,11.58,9.6V535.1C334.06,540.41,328.88,544.7,322.48,544.7Z" transform="translate(-16.57 -187.39)"/><path class="cls-4" d="M301,418.53a5.09,5.09,0,1,1-5.09-5.09A5.09,5.09,0,0,1,301,418.53Z" transform="translate(-16.57 -187.39)"/><path class="cls-5" d="M316,418.53a5.09,5.09,0,1,1-5.09-5.09A5.09,5.09,0,0,1,316,418.53Z" transform="translate(-16.57 -187.39)"/><path class="cls-4" d="M301,465.93a5.09,5.09,0,1,1-5.09-5.09A5.09,5.09,0,0,1,301,465.93Z" transform="translate(-16.57 -187.39)"/><path class="cls-5" d="M316,465.93a5.09,5.09,0,1,1-5.09-5.09A5.09,5.09,0,0,1,316,465.93Z" transform="translate(-16.57 -187.39)"/><path class="cls-4" d="M301,513.33a5.09,5.09,0,1,1-5.09-5.09A5.08,5.08,0,0,1,301,513.33Z" transform="translate(-16.57 -187.39)"/><path class="cls-5" d="M316,513.33a5.09,5.09,0,1,1-5.09-5.09A5.08,5.08,0,0,1,316,513.33Z" transform="translate(-16.57 -187.39)"/><rect class="cls-6" x="184.74" y="198.53" width="120.74" height="169.8"/><path class="cls-7" d="M320.27,440.57H203.09c-6.4,0-11.59-4.3-11.59-9.6v-21.8c0-5.3,5.19-9.6,11.59-9.6H320.27c6.4,0,11.59,4.3,11.59,9.6V431C331.86,436.27,326.67,440.57,320.27,440.57Z" transform="translate(-16.57 -187.39)"/><path class="cls-7" d="M320.27,491.46H203.09c-6.4,0-11.59-4.3-11.59-9.6V460.07c0-5.31,5.19-9.61,11.59-9.61H320.27c6.4,0,11.59,4.3,11.59,9.61v21.79C331.86,487.16,326.67,491.46,320.27,491.46Z" transform="translate(-16.57 -187.39)"/><path class="cls-7" d="M320.27,542.35H203.09c-6.4,0-11.59-4.3-11.59-9.6V511c0-5.31,5.19-9.61,11.59-9.61H320.27c6.4,0,11.59,4.3,11.59,9.61v21.79C331.86,538.05,326.67,542.35,320.27,542.35Z" transform="translate(-16.57 -187.39)"/><path class="cls-4" d="M298.8,416.18a5.09,5.09,0,1,1-5.09-5.09A5.09,5.09,0,0,1,298.8,416.18Z" transform="translate(-16.57 -187.39)"/><path class="cls-5" d="M313.78,416.18a5.08,5.08,0,1,1-5.08-5.09A5.08,5.08,0,0,1,313.78,416.18Z" transform="translate(-16.57 -187.39)"/><path class="cls-4" d="M298.8,463.57a5.09,5.09,0,1,1-5.09-5.08A5.09,5.09,0,0,1,298.8,463.57Z" transform="translate(-16.57 -187.39)"/><path class="cls-5" d="M313.78,463.57a5.08,5.08,0,1,1-5.08-5.08A5.08,5.08,0,0,1,313.78,463.57Z" transform="translate(-16.57 -187.39)"/><path class="cls-4" d="M298.8,511a5.09,5.09,0,1,1-5.09-5.09A5.09,5.09,0,0,1,298.8,511Z" transform="translate(-16.57 -187.39)"/><path class="cls-5" d="M313.78,511a5.08,5.08,0,1,1-5.08-5.09A5.08,5.08,0,0,1,313.78,511Z" transform="translate(-16.57 -187.39)"/><rect class="cls-6" x="9.81" y="198.53" width="120.74" height="169.8"/><path class="cls-7" d="M145.34,440.57H28.16c-6.4,0-11.59-4.3-11.59-9.6v-21.8c0-5.3,5.19-9.6,11.59-9.6H145.34c6.4,0,11.59,4.3,11.59,9.6V431C156.93,436.27,151.74,440.57,145.34,440.57Z" transform="translate(-16.57 -187.39)"/><path class="cls-7" d="M145.34,491.46H28.16c-6.4,0-11.59-4.3-11.59-9.6V460.07c0-5.31,5.19-9.61,11.59-9.61H145.34c6.4,0,11.59,4.3,11.59,9.61v21.79C156.93,487.16,151.74,491.46,145.34,491.46Z" transform="translate(-16.57 -187.39)"/><path class="cls-7" d="M145.34,542.35H28.16c-6.4,0-11.59-4.3-11.59-9.6V511c0-5.31,5.19-9.61,11.59-9.61H145.34c6.4,0,11.59,4.3,11.59,9.61v21.79C156.93,538.05,151.74,542.35,145.34,542.35Z" transform="translate(-16.57 -187.39)"/><path class="cls-8" d="M123.87,416.18a5.09,5.09,0,1,1-5.08-5.09A5.09,5.09,0,0,1,123.87,416.18Z" transform="translate(-16.57 -187.39)"/><path class="cls-9" d="M138.85,416.18a5.09,5.09,0,1,1-5.08-5.09A5.08,5.08,0,0,1,138.85,416.18Z" transform="translate(-16.57 -187.39)"/><path class="cls-8" d="M123.87,463.57a5.09,5.09,0,1,1-5.08-5.08A5.09,5.09,0,0,1,123.87,463.57Z" transform="translate(-16.57 -187.39)"/><circle class="cls-9" cx="117.2" cy="276.18" r="5.09"/><path class="cls-8" d="M123.87,511a5.09,5.09,0,1,1-5.08-5.09A5.09,5.09,0,0,1,123.87,511Z" transform="translate(-16.57 -187.39)"/><path class="cls-9" d="M138.85,511a5.09,5.09,0,1,1-5.08-5.09A5.08,5.08,0,0,1,138.85,511Z" transform="translate(-16.57 -187.39)"/><path class="cls-8" d="M355.74,540.58c-2.91.18-5.85.28-8.8.28C349.89,540.86,352.83,540.76,355.74,540.58Z" transform="translate(-16.57 -187.39)"/><path class="cls-10" d="M464.48,482.86c-1.32,2.42-.39,1.58,7.1-10q-2.79,4.31-5.86,8.39C465.32,481.81,464.89,482.33,464.48,482.86Z" transform="translate(-16.57 -187.39)"/><path class="cls-11" d="M475.65,328.48c-3.43-1.17-7.09-.71-10.52-1.69-2-.58-2-1.83-1.95-3.62,0-2.38-1.92-3.64-3.95-4.45a14.44,14.44,0,0,1-7.25-6.13c-1.21-2-5.7-8.65-7.86-4.08-2.08,4.4-4,8.29-9.77,8.07-4.7-.17-8.34-4.65-8.41-9.22-.09-5.54,7.42-5.22,6.81-11.11-.67-6.46-8.12-10.12-13.12-12.9-.23-.12-3.59-2-3.12-2.28,1.64-1.06,6,.71,7.42,1.47,3.06,1.6,7.44,8.17,11.52,5.63s-4.6-9.53-6.51-10.48-5.09-.79-6.6-2.64c-1.3-1.59-1.24-4-2-5.86-2.12-4.94-8.74-8.34-13.86-9.26-3.8-.67-8.95-2.95-9.32-7.26-1.26-.47-2.53-.9-3.81-1.32-4.55,2.13-8.8,4.85-13.39,6.9-2.07.92-6,3-8.27,1.47-3.64-2.4.69-9.6-2.21-12.71-2.13-2.3-6.94-.35-9.59-.37-.67,0-3.18-.83-3.55.09s.49,2.13.8,2.85c1.23,2.89,1,5.48-3,4.91-3-.43-5.55-2.81-7.25-5.18l-6.55,2.84c3.65,8.76-19.11-.56-20.29,3.9-.38,1.44,2.34,3.18,3.53,3.14.81,0,2.36-1.62,3-1,1.45,1.29,1.53,5,1.68,6.79,0,.29-.14,2.66.4,2.16,3.67-3.42,8.31-5.3,12-8.64,1.18-1.06,2.44-2.58,4-3,2.07-.53,4,1.44,5.37,2.73,4.82,4.7,10.26,11.62,9.51,18.84-.11,1.08-.61,3.31-2.15,3-2.1-.35-3.29-4.09-4.64-5.46-2.89-2.92-10.56-6.26-12.86-.81-1.54,3.67,3.74,5.51,6.21,6.68.86.4,2.69,1,3,2.11.37,1.48-3.16,2.35-4,2.47-4.68.64-8.17-3.24-11.41-6-3-2.52-1.44,2.57-.32,3.86.32.36,1.51,1.32,1.14,1.89-.76,1.2-4.32,1.07-5.45,1.18-7.12.68-13.09,2.5-19,6.68A55.26,55.26,0,0,0,300,302c-.2.23-.39.47-.58.71-1.34,5.25-2.61,10.81-4.94,15.72-1.27,2.68-1.9,1.12-2-1.1-.19-5.07,1.28-11.23-1.95-15.67-5.81-8-18.93,3.4-23.28,7.67-3.5,3.43-9.33,10.45-5.16,15.51s8.4-2.21,12.57-2.65a7.83,7.83,0,0,1,4.84,1.09c-2.45,2.28-5.11,4.29-7.59,6.52-1.16,1-1.92,2.06,0,2.59s4.89.22,6.28,1.82c1.2,1.37-.13,3.89-.63,5.29-1.14,3.29-3.32,10.86,0,13.68,2.44,2.07,8.45-.62,11-1.18,12.73-2.8,26.71-2.29,34.28,9.89,1.19,1.92,1.89,4.1,3.64,5.63a23.45,23.45,0,0,0,6.47,3.46c1.58.67,3.58,1.41,4.51,3,1.41,2.39-1,5.39-2.09,7.38-1.73,3.24-5.36,8.68-4.67,12.67a1.18,1.18,0,0,0,1.68,1c9.71.33,20.76,3.16,28.75,8.88,3,2.12,6,5.25,5.82,9.19-.28,5.51-6,8.92-9.7,12.17-6.43,5.69-11,11.29-12.72,19.71-1.57,7.54-8.52,10.43-15.58,11.49-6.23,21.63-20.47,18.22-20.47,18.22-1.56,3.9-4,10.8-8.71,12-2,.49-4.21-.51-5.71,1.26-3,3.58-1.58,9.49-.84,13.62.42,2.29,2.8,10.08-1.14,10.71-3.66.58-6.92-2.23-8-5.49-1.78-5.5-.88-12-.39-17.62a57.22,57.22,0,0,0-2.06-21.66c-1.21-4.22-3.89-9.92-2.23-14.34.84-2.22,3-3.21,4.54-4.88a18.72,18.72,0,0,0,4.25-8.32c1-4.11,1.41-10.44-2.33-13.39-3.31-2.6-9.11-3.65-11.17-7.6-1.25-2.41.79-4.36,1.94-6.3a10.43,10.43,0,0,0,.51-10.23c-2.39-4.9-8.52-8.37-9.73-13.8-1.37-6.11,6.16-11.6,9.86-15.19,2.8-2.71,5.56-5.47,8.17-8.36,1.82-2,4-4.24,5.05-6.8.66-1.61-.38-2.1-1.87-1.82-3.47.63-6.4,1.86-10,1.2a13.77,13.77,0,0,1-7.71-4.13,66.69,66.69,0,0,0-1.47-9.32c-.3-1.11-.66-2.56-1.68-3.25-1.89-1.3-3.25-1.32-4.56-3.62-1.12-2-1.83-4-3.43-5.71a20.86,20.86,0,0,0-4.9-3.53c-3.12-1.78-5.65-3.66-5.09-7.65,1-6.84,6-12.6,7.49-19.38.45-1.95.71-7.51-2.53-4.28a20.46,20.46,0,0,0-3.75,6c-.55,1.21-1.35,3.24-2.68,3.84-2.18,1-.58-5.77-.42-6.29,3.75-12.3,14.44-19,23.64-27,.79-.68,6.49-4.91,5.64-6.31a10.45,10.45,0,0,1-6.36-2,148.49,148.49,0,0,0-69.37,157.56c10.69,51.77,49.6,95,99.9,111.27a148.25,148.25,0,0,0,163.13-50.87c1.6-2.92,6.5-10.64,7.1-10-1.67-1.84-3.33-3.64-5.91-2.35a21.94,21.94,0,0,0-5.71,5c-4.91,5.3-9.31,11.06-14.55,16-2.58,2.45-5.34,4.68-7.77,7.28-1.6,1.72-3.07,3.84-5,5.21-3.65,2.62-6.36-7-6.75-9.1-1.08-5.66,2.14-10.35,6.16-14,2.67-2.39,9.31-5.6,9.66-9.55.37-4.19-4.51-8-2.94-12.2,1-2.53,4.15-3.3,5.9-5.17a16.32,16.32,0,0,0,3.6-7.73c.48-2.08.72-4.41,1.83-6.28s3-2.87,4.15-4.63c2.72-4.17,4.62-10.55.93-14.75-1.3-1.47-4.18-2.3-4.75-4.33-.42-1.49,1.25-2.74,2.25-3.53,3.17-2.54,7.07-5.24,5.73-9.89-1.11-3.9-4.65.69-6.87.51-3-.26-2.14-6.51-2.61-8.56-.53-2.29-8.25,1-9.38,1.27-4.65,1.29-11.55,3.53-15.6-.4-3.42-3.31-3.91-8.83-5.67-13-2.26-5.4-6.54-9.23-9.76-14-2.57-3.78,3.32-2.61,5.56-3.47,4.37-1.71,5.09-6.91,5.13-11,0-3.76-.6-7.46-.81-11.2-.12-2.18-.33-4.84.71-6.87,1.52-3,5.82-1.9,8.4-3,2-.89,2-3,2.29-4.88.41-2.92,2.3-3.42,4.87-4.06,5-1.23,9.86-4.56,15.12-4.57a3.88,3.88,0,0,1,4.11,3c.35,1.4-.22,4.61.87,5.73.43.44,1.82.36,2.41.66,3,1.56,5.16,4.81,7.22,7.39.68.86,2,3.3,3.32,3.39,1.14.07,2.76-1.76,3.64-2.31,2.38-1.49,5.88-2.2,7.52-4.62C480.42,330.59,477.37,329.07,475.65,328.48Z" transform="translate(-16.57 -187.39)"/><path class="cls-10" d="M464.48,482.86c.41-.53.84-1.05,1.24-1.59q3.07-4.08,5.86-8.39C471,472.22,466.08,479.94,464.48,482.86Z" transform="translate(-16.57 -187.39)"/><path class="cls-8" d="M214.13,325.91q-1.26,2.5-2.43,5.09Q212.87,328.42,214.13,325.91Z" transform="translate(-16.57 -187.39)"/><path class="cls-8" d="M214.41,325.37c-.1.18-.19.35-.28.54C214.22,325.72,214.31,325.55,214.41,325.37Z" transform="translate(-16.57 -187.39)"/><path class="cls-8" d="M211.7,331c-.13.27-.25.55-.38.82C211.45,331.55,211.58,331.27,211.7,331Z" transform="translate(-16.57 -187.39)"/><path class="cls-8" d="M208.81,337.76c-.78,2-1.53,4-2.23,6Q207.65,340.72,208.81,337.76Z" transform="translate(-16.57 -187.39)"/><path class="cls-8" d="M211.32,331.82c-.75,1.67-1.46,3.35-2.15,5.05C209.86,335.17,210.57,333.49,211.32,331.82Z" transform="translate(-16.57 -187.39)"/><path class="cls-8" d="M214.41,325.37a149.59,149.59,0,0,1,56.41-60.47,10.45,10.45,0,0,0,6.36,2s2.84,0-15.36,14.22-16.5,34-10.82,21.54,10.82-7.88,1.72,9.76,4.78,11.95,9.49,22.75,6.44-2.27,8.71,18.22c0,0,5.71,6.82,15.93,3.41s-1.7,9.09-12.51,19.34-7.41,13.64-1.71,19.91,8,11.38,2.84,18.21,8,9.1,11.38,13.07,2.84,17.08-5.12,22.78,4,18.19,2.27,35.83-1.29,25,6.75,26.17-1.06-15.36,2.35-22.75,7.41,5.12,15.37-14.79c0,0,14.24,3.41,20.47-18.22,0,0,12.51-1.71,14.8-8.53s-.57-11.38,17.63-26.17-12.52-26.17-29-26.74c0,0-6.05,2.47,4.55-16.5,4.62-8.28-9.11-6.26-12.52-13.65S313,348.86,297.1,350.56s-20.5,7.41-21.05-2.27,6.81-14.21-1.15-15.36-4-1.71,4.57-9.67c0,0-5.13-3.43-10.25,1.71s-14.23-2.84-3.42-14.22,27.87-19.92,26.74,1.7,6.83-9.76,6.83-9.76,11.95-15.28,26.74-16.4,5.69-1.72,5.69-6.84,6.82,8.54,15.08,5.12-8.83-4.55-7.12-10.23,11.39-4,15.36,3.41,8.53-4-1.7-15.94-8.54-4.54-18.21.57-5.68,8-7.4-.57-2.26.57-6.82-4,8.12-2.46,14.79-1.72,4.55-4,4.55-4l6.55-2.84s4.27,6.25,9.38,5.11-3.41-9.11,1.7-8,12-3.41,12.52,3.43-4,15.93,14.8,5.68c3.79-2.06,6.31-3.41,8-4.21a148.44,148.44,0,0,0-178.91,74Z" transform="translate(-16.57 -187.39)"/><path class="cls-8" d="M209.17,336.87l-.36.89Z" transform="translate(-16.57 -187.39)"/><path class="cls-12" d="M397.13,252.7a5.56,5.56,0,0,0,2.93,4.57c7.4,4.54,5.13.56,14.79,6.25s3.42,12,10.81,13.09,14.23,11.38,8.55,11.95-6.27-6.25-14.79-7.41,3.42,2.84,9.1,8,5.69,11.17,0,13.56-1.48,15.46,7.79,13.74,5.84-11.37,11-9.08,3.41,7.94,12,11.37-1.15,7.95,9.11,8.52,15.36,4.55,6.25,8.53-4.54,7.4-12.52-2.28-7.18-.4-8-9.66-13.64-.57-20.46.57-1.15,8-7.41,9.09-9.11-.56-7.4,14.23-2.26,18.2-9.1,18.2,5.71,8,9.1,18.21,4,16.51,18.79,12.52,10.23-4,11.95,4,8-4.56,9.09,3.4-14.22,9.68-5.7,14.79,2.31,17.07-1.7,19.91-1.14,13.07-9.66,17.64,4,12.5-1.14,17.65-18.79,11.37-13.66,23.89,5.14,5.11,15.94-4,19.91-24.45,25-23.88c1.83.21,2.71,1.64,3.8,2.84a149.47,149.47,0,0,1-69.24,57.24,148.46,148.46,0,0,0-5.21-277.42Z" transform="translate(-16.57 -187.39)"/><path class="cls-8" d="M394.63,251.79c.84.28,1.66.61,2.5.91v0C396.29,252.36,395.46,252.07,394.63,251.79Z" transform="translate(-16.57 -187.39)"/><path class="cls-13" d="M422.75,520c-.35.21-.73.39-1.08.59h0C422,520.35,422.4,520.17,422.75,520Z" transform="translate(-16.57 -187.39)"/><path class="cls-13" d="M246.5,283.11c1.24-1.14,2.55-2.22,3.83-3.33h0C249.05,280.88,247.74,282,246.5,283.11Z" transform="translate(-16.57 -187.39)"/><path class="cls-13" d="M457.49,491.29l-.38.39h0Z" transform="translate(-16.57 -187.39)"/><path class="cls-13" d="M457,491.85h0c-2.08,2.29-4.21,4.53-6.42,6.69C452.74,496.38,454.88,494.14,457,491.85Z" transform="translate(-16.57 -187.39)"/><path class="cls-14" d="M495.36,392.38A148.47,148.47,0,0,0,397.13,252.7v0c-.84-.31-1.67-.6-2.5-.88l.77.28c-.69-.24-1.38-.49-2.08-.72A148.2,148.2,0,0,0,350.43,244V540.7a147.81,147.81,0,0,0,39.62-6.25A145,145,0,0,0,409.34,527h0c1.13-.53,2.29-1,3.41-1.53-.34.16-.7.29-1,.46,3.13-1.53,6.2-3.19,9.21-4.93.24-.14.49-.26.74-.41h0A150.42,150.42,0,0,0,457,491.85l.16-.17c2.46-2.72,4.8-5.54,7.05-8.44q-2.78,3.57-5.74,7,3.12-3.54,6-7.3c-1.12,2.06-.49,1.58,4.73-6.36.2-.29.38-.6.58-.89l1.81-2.78,0,0A147.57,147.57,0,0,0,495.36,392.38Z" transform="translate(-16.57 -187.39)"/><path class="cls-13" d="M409.34,527c-2.32,1.08-4.62,2.19-7,3.16,2.38-1,4.68-2.07,7-3.16h0Z" transform="translate(-16.57 -187.39)"/><path class="cls-13" d="M421,520.94l0,0c-2.42,1.39-4.86,2.76-7.36,4C416.08,523.72,418.53,522.35,421,520.94Z" transform="translate(-16.57 -187.39)"/><rect class="cls-6" x="322.65" width="233.77" height="386.06"/><path class="cls-15" d="M569.56,307.64H342.67c-12.4,0-22.45-8.77-22.45-19.59V243.59c0-10.82,10-19.59,22.45-19.59H569.56C582,224,592,232.77,592,243.59v44.46C592,298.87,582,307.64,569.56,307.64Z" transform="translate(-16.57 -187.39)"/><path class="cls-15" d="M569.56,414H342.67c-12.4,0-22.45-8.29-22.45-18.5v-42c0-10.22,10-18.5,22.45-18.5H569.56C582,335,592,343.28,592,353.5v42C592,405.71,582,414,569.56,414Z" transform="translate(-16.57 -187.39)"/><path class="cls-15" d="M569.56,522H342.67c-12.4,0-22.45-8-22.45-17.8V463.8c0-9.83,10-17.8,22.45-17.8H569.56C582,446,592,454,592,463.8v40.4C592,514,582,522,569.56,522Z" transform="translate(-16.57 -187.39)"/><path class="cls-8" d="M528,257.87a9.84,9.84,0,1,1-9.85-9.87A9.86,9.86,0,0,1,528,257.87Z" transform="translate(-16.57 -187.39)"/><path class="cls-9" d="M557,257.87a9.84,9.84,0,1,1-9.84-9.87A9.85,9.85,0,0,1,557,257.87Z" transform="translate(-16.57 -187.39)"/><path class="cls-8" d="M528,366.25c0,5.11-4.41,9.26-9.85,9.26s-9.83-4.15-9.83-9.26,4.4-9.25,9.83-9.25S528,361.14,528,366.25Z" transform="translate(-16.57 -187.39)"/><path class="cls-9" d="M557,366.25c0,5.11-4.4,9.26-9.84,9.26s-9.84-4.15-9.84-9.26,4.4-9.25,9.84-9.25S557,361.14,557,366.25Z" transform="translate(-16.57 -187.39)"/><path class="cls-8" d="M528,474.14c0,5.05-4.41,9.14-9.85,9.14s-9.83-4.09-9.83-9.14,4.4-9.14,9.83-9.14S528,469.09,528,474.14Z" transform="translate(-16.57 -187.39)"/><path class="cls-9" d="M557,474.14c0,5.05-4.4,9.14-9.84,9.14s-9.84-4.09-9.84-9.14,4.4-9.14,9.84-9.14S557,469.09,557,474.14Z" transform="translate(-16.57 -187.39)"/></g></g></svg>