<?xml version="1.0" encoding="utf-8"?>
<!-- Generator: Adobe Illustrator 16.0.0, SVG Export Plug-In . SVG Version: 6.00 Build 0)  -->
<!DOCTYPE svg PUBLIC "-//W3C//DTD SVG 1.1//EN" "http://www.w3.org/Graphics/SVG/1.1/DTD/svg11.dtd">
<svg version="1.1" id="Layer_1" xmlns="http://www.w3.org/2000/svg" xmlns:xlink="http://www.w3.org/1999/xlink" x="0px" y="0px"
	 width="269.648px" height="249.893px" viewBox="0 0 269.648 249.893" enable-background="new 0 0 269.648 249.893"
	 xml:space="preserve">
<path fill="none" stroke="#BEBEBF" stroke-width="7" stroke-linecap="round" stroke-linejoin="round" stroke-miterlimit="10" d="
	M243.061,165.794c0-18.572-12.91-34.119-30.242-38.185c0.047-0.923,0.068-1.854,0.068-2.787c0-30.262-24.529-54.794-54.791-54.794
	c-19.906,0-37.332,10.616-46.929,26.494c-1.939-0.296-3.93-0.448-5.954-0.448c-18.737,0-34.396,13.139-38.292,30.705
	c-1.351-0.14-2.722-0.215-4.109-0.215c-21.666,0-39.231,17.563-39.231,39.23c0,21.608,17.473,42.964,39.06,43.059l2.423,0.08
	l142.856-0.288l0,0C227.666,206.598,243.061,186.079,243.061,165.794z"/>
<g>
	<g>
		
			<linearGradient id="SVGID_1_" gradientUnits="userSpaceOnUse" x1="75.9998" y1="49.9773" x2="199.3611" y2="49.9773" gradientTransform="matrix(1 0 0 -1 -6 154.8921)">
			<stop  offset="0" style="stop-color:#07B8EC"/>
			<stop  offset="0.1204" style="stop-color:#0DB2E8"/>
			<stop  offset="0.32" style="stop-color:#1AA3DD"/>
			<stop  offset="0.4007" style="stop-color:#1E9CD8"/>
			<stop  offset="0.7093" style="stop-color:#414FA2"/>
			<stop  offset="0.9944" style="stop-color:#383081"/>
		</linearGradient>
		<path fill="url(#SVGID_1_)" d="M157.607,59.811c11.505,0.003,20.753,9.212,20.753,20.53c0,11.186-8.517,20.901-18.93,21.494
			L159.321,102h-57.036c-4.977,0-9.406,2.308-12.196,6.428L85,116.113V116V59.856L157.607,59.811 M157.602,44.811L70,44.865V116
			v49.019L102.285,117h57.353l0.464-0.181c18.732-0.995,33.26-17.414,33.26-36.396C193.36,60.801,177.227,44.811,157.602,44.811
			L157.602,44.811z"/>
	</g>
</g>
<g enable-background="new    ">
	<path d="M74.383,176.671c-0.635,0-1.154,0.162-1.555,0.487c-0.401,0.326-0.601,0.775-0.601,1.351s0.147,1.025,0.442,1.351
		s0.685,0.574,1.169,0.748c0.484,0.175,1.013,0.329,1.588,0.466c0.575,0.136,1.149,0.303,1.725,0.499
		c0.575,0.196,1.104,0.438,1.588,0.727c0.484,0.287,0.874,0.707,1.169,1.259c0.295,0.553,0.442,1.222,0.442,2.009
		c0,1.301-0.519,2.421-1.555,3.358c-1.036,0.938-2.413,1.407-4.13,1.407c-1.717,0-3.105-0.405-4.164-1.215
		c-1.059-0.809-1.588-1.947-1.588-3.415h3.404c0.121,1.393,0.915,2.088,2.383,2.088c0.726,0,1.301-0.188,1.725-0.567
		c0.423-0.378,0.635-0.881,0.635-1.509s-0.28-1.123-0.84-1.486s-1.236-0.636-2.031-0.817s-1.592-0.4-2.394-0.658
		c-0.802-0.257-1.483-0.707-2.042-1.35c-0.56-0.644-0.839-1.494-0.839-2.554c0-1.437,0.521-2.587,1.565-3.449
		s2.386-1.293,4.028-1.293c1.641,0,2.961,0.374,3.96,1.123c0.998,0.749,1.543,1.888,1.634,3.415h-3.495
		c-0.061-0.604-0.288-1.085-0.681-1.44S75.018,176.671,74.383,176.671z"/>
	<path d="M88.725,190.354c-1.831,0-3.321-0.594-4.471-1.781c-1.15-1.188-1.725-2.758-1.725-4.709s0.579-3.514,1.736-4.687
		c1.158-1.172,2.655-1.758,4.494-1.758c1.838,0,3.347,0.57,4.527,1.713c1.18,1.143,1.77,2.666,1.77,4.572
		c0,0.439-0.03,0.848-0.091,1.226h-9.167c0.075,0.817,0.378,1.476,0.908,1.975c0.529,0.499,1.203,0.749,2.02,0.749
		c1.104,0,1.921-0.454,2.451-1.362h3.449c-0.363,1.195-1.066,2.172-2.11,2.928C91.47,189.976,90.207,190.354,88.725,190.354z
		 M90.824,180.869c-0.567-0.5-1.252-0.749-2.054-0.749c-0.802,0-1.472,0.249-2.008,0.749c-0.537,0.499-0.859,1.165-0.964,1.997
		h5.945C91.698,182.034,91.391,181.368,90.824,180.869z"/>
	<path d="M100.775,177.6v2.225c0.847-1.604,2.072-2.405,3.676-2.405v3.268h-0.794c-0.953,0-1.672,0.238-2.156,0.715
		c-0.484,0.477-0.726,1.297-0.726,2.462v6.309h-3.2V177.6H100.775z"/>
	<path d="M105.177,177.6h3.404l3.245,9.826l3.222-9.826h3.404l-4.629,12.572h-4.017L105.177,177.6z"/>
	<path d="M123.853,174.401c0,0.545-0.189,1.006-0.567,1.384c-0.378,0.379-0.836,0.567-1.373,0.567s-0.995-0.188-1.373-0.567
		c-0.378-0.378-0.567-0.839-0.567-1.384s0.189-1.006,0.567-1.385c0.378-0.378,0.836-0.567,1.373-0.567s0.995,0.189,1.373,0.567
		C123.664,173.395,123.853,173.856,123.853,174.401z M120.313,190.173V177.6h3.2v12.572H120.313z"/>
	<path d="M127.756,188.584c-1.15-1.18-1.725-2.745-1.725-4.697c0-1.951,0.575-3.518,1.725-4.697c1.149-1.18,2.64-1.77,4.471-1.77
		c1.528,0,2.806,0.37,3.835,1.111c1.028,0.741,1.717,1.793,2.064,3.154h-3.449c-0.408-1.044-1.226-1.565-2.451-1.565
		c-0.923,0-1.646,0.337-2.167,1.01s-0.783,1.592-0.783,2.757s0.261,2.084,0.783,2.758c0.522,0.673,1.245,1.01,2.167,1.01
		c1.21,0,2.027-0.529,2.451-1.589h3.449c-0.363,1.316-1.063,2.36-2.1,3.132c-1.036,0.771-2.303,1.157-3.8,1.157
		C130.396,190.354,128.906,189.764,127.756,188.584z"/>
	<path d="M145.842,190.354c-1.83,0-3.32-0.594-4.471-1.781c-1.149-1.188-1.725-2.758-1.725-4.709s0.579-3.514,1.736-4.687
		c1.158-1.172,2.655-1.758,4.494-1.758c1.838,0,3.347,0.57,4.526,1.713c1.181,1.143,1.771,2.666,1.771,4.572
		c0,0.439-0.031,0.848-0.092,1.226h-9.167c0.075,0.817,0.378,1.476,0.907,1.975s1.203,0.749,2.02,0.749
		c1.104,0,1.922-0.454,2.451-1.362h3.449c-0.363,1.195-1.066,2.172-2.11,2.928C148.588,189.976,147.324,190.354,145.842,190.354z
		 M147.941,180.869c-0.567-0.5-1.252-0.749-2.054-0.749s-1.472,0.249-2.009,0.749c-0.537,0.499-0.858,1.165-0.964,1.997h5.945
		C148.814,182.034,148.509,181.368,147.941,180.869z"/>
	<path d="M153.988,181.277c0-1.09,0.462-2.005,1.385-2.746c0.922-0.741,2.148-1.111,3.676-1.111c1.528,0,2.754,0.366,3.677,1.101
		c0.923,0.733,1.415,1.729,1.476,2.983h-3.269c-0.091-1.059-0.741-1.588-1.952-1.588c-0.604,0-1.074,0.121-1.406,0.362
		c-0.333,0.242-0.499,0.575-0.499,0.999s0.249,0.757,0.749,0.998c0.499,0.242,1.104,0.432,1.814,0.567
		c0.711,0.137,1.419,0.307,2.123,0.511c0.703,0.204,1.305,0.567,1.803,1.09c0.5,0.521,0.75,1.214,0.75,2.076
		c0,1.135-0.48,2.058-1.441,2.769s-2.187,1.066-3.676,1.066c-1.49,0-2.713-0.352-3.666-1.056c-0.953-0.703-1.475-1.713-1.565-3.029
		h3.269c0.12,1.06,0.793,1.589,2.02,1.589c0.59,0,1.066-0.133,1.43-0.397s0.544-0.612,0.544-1.044c0-0.431-0.249-0.771-0.749-1.021
		c-0.499-0.249-1.104-0.442-1.814-0.578c-0.712-0.136-1.419-0.303-2.123-0.499c-0.703-0.196-1.305-0.549-1.803-1.056
		C154.238,182.756,153.988,182.094,153.988,181.277z"/>
	<path d="M173.844,190.173v-15.84h3.2v15.84H173.844z"/>
	<path d="M183.648,177.6v1.884c0.801-1.376,2.102-2.064,3.902-2.064c1.438,0,2.609,0.473,3.518,1.418s1.361,2.258,1.361,3.938v7.397
		h-3.177v-6.944c0-0.983-0.249-1.735-0.749-2.258c-0.499-0.521-1.18-0.783-2.042-0.783s-1.548,0.262-2.054,0.783
		c-0.508,0.522-0.76,1.274-0.76,2.258v6.944h-3.2V177.6H183.648z"/>
	<path d="M196.559,188.584c-1.149-1.18-1.725-2.745-1.725-4.697c0-1.951,0.575-3.518,1.725-4.697s2.64-1.77,4.471-1.77
		c1.528,0,2.806,0.37,3.835,1.111s1.717,1.793,2.064,3.154h-3.449c-0.408-1.044-1.225-1.565-2.45-1.565
		c-0.923,0-1.646,0.337-2.167,1.01c-0.522,0.673-0.783,1.592-0.783,2.757s0.261,2.084,0.783,2.758
		c0.521,0.673,1.244,1.01,2.167,1.01c1.21,0,2.026-0.529,2.45-1.589h3.449c-0.362,1.316-1.063,2.36-2.099,3.132
		s-2.304,1.157-3.801,1.157C199.199,190.354,197.709,189.764,196.559,188.584z"/>
</g>
<g>
	<g enable-background="new    ">
		<path fill="#3A308B" d="M108.791,137.656c-2.149,0-3.566,0.782-3.566,2.346c0,5.668,18.029,2.443,18.029,14.755
			c0,6.987-6.156,10.554-13.778,10.554c-5.716,0-11.677-2.101-15.781-5.472l3.469-6.987c3.518,3.029,8.844,5.18,12.41,5.18
			c2.639,0,4.3-0.978,4.3-2.785c0-5.814-18.029-2.297-18.029-14.413c0-6.401,5.423-10.456,13.68-10.456
			c5.033,0,10.114,1.563,13.681,3.859l-3.372,7.085C116.218,139.269,111.625,137.656,108.791,137.656z"/>
		<path fill="#3A308B" d="M154.184,130.767v7.378h-10.261v26.872h-8.941v-26.872H124.82v-7.378H154.184z"/>
		<path fill="#3A308B" d="M165.669,130.767l15.537,20.618v-20.618h8.306v34.25h-7.816l-15.537-20.521v20.521h-8.355v-34.25H165.669z
			"/>
	</g>
</g>
</svg>
