<?xml version="1.0" encoding="utf-8"?>
<!-- Generator: Adobe Illustrator 16.0.0, SVG Export Plug-In . SVG Version: 6.00 Build 0)  -->
<!DOCTYPE svg PUBLIC "-//W3C//DTD SVG 1.1//EN" "http://www.w3.org/Graphics/SVG/1.1/DTD/svg11.dtd">
<svg version="1.1" id="Layer_1" xmlns="http://www.w3.org/2000/svg" xmlns:xlink="http://www.w3.org/1999/xlink" x="0px" y="0px"
	 width="512px" height="512px" viewBox="0 0 512 512" enable-background="new 0 0 512 512" xml:space="preserve">
<path fill="#7BBCCF" d="M396.215,512H130.953c-7.953,0-14.582-6.098-15.238-14.027l-30.59-368.078
	c-0.355-4.262,1.094-8.477,3.988-11.625c2.895-3.145,6.977-4.934,11.254-4.934h326.434c4.277,0,8.355,1.789,11.254,4.934
	c2.896,3.148,4.34,7.363,3.988,11.625l-30.59,368.078C410.797,505.902,404.168,512,396.215,512z"/>
<path fill="#197084" d="M426.801,113.336H263.582V512h132.633c7.953,0,14.582-6.098,15.238-14.027l30.59-368.078
	c0.352-4.262-1.094-8.477-3.988-11.625C435.156,115.125,431.078,113.336,426.801,113.336z"/>
<path fill="#7BBCCF" d="M318.641,85.645H208.527c-8.445,0-15.293-6.848-15.293-15.293C193.234,31.559,224.793,0,263.582,0
	c38.793,0,70.352,31.559,70.352,70.352C333.934,78.797,327.086,85.645,318.641,85.645z"/>
<path fill="#197084" d="M263.582,0v85.645h55.059c8.445,0,15.293-6.848,15.293-15.293C333.934,31.559,302.375,0,263.582,0z"/>
<path fill="#80D0DD" d="M366.898,268.059c-7.746-3.367-16.759,0.185-20.121,7.93l-3.728,8.57
	c-6.137-10.75-14.43-20.285-24.336-27.789c-16.004-12.121-35.098-18.531-55.223-18.531c-33.066,0-63.676,17.938-79.875,46.809
	c-4.133,7.363-1.512,16.688,5.852,20.82c7.367,4.133,16.688,1.512,20.82-5.853c10.797-19.238,31.184-31.188,53.203-31.188
	c21.637,0,41.473,11.695,52.319,29.711l-12.492-5.434c-7.745-3.367-16.758,0.184-20.12,7.93c-3.371,7.746,0.18,16.754,7.926,20.121
	l44.313,19.266c1.94,0.848,4.02,1.27,6.098,1.27c1.897,0,3.801-0.354,5.604-1.063c3.773-1.488,6.802-4.414,8.418-8.133
	l19.267-44.313C378.195,280.438,374.645,271.43,366.898,268.059z"/>
<path fill="#308396" d="M366.898,268.059c-7.746-3.367-16.759,0.185-20.121,7.93l-3.728,8.57
	c-6.137-10.75-14.43-20.285-24.336-27.789c-15.979-12.104-35.043-18.512-55.133-18.526v30.586
	c21.599,0.03,41.397,11.719,52.229,29.711l-12.492-5.435c-7.745-3.367-16.758,0.185-20.12,7.931
	c-3.371,7.746,0.18,16.754,7.926,20.121l44.313,19.266c1.94,0.849,4.02,1.271,6.098,1.271c1.897,0,3.801-0.355,5.604-1.063
	c3.773-1.487,6.802-4.414,8.418-8.133l19.267-44.313C378.195,280.438,374.645,271.43,366.898,268.059z"/>
<path fill="#80D0DD" d="M337.699,365.266c-7.367-4.133-16.688-1.512-20.824,5.853c-10.793,19.237-31.18,31.188-53.203,31.188
	c-21.633,0-41.469-11.694-52.316-29.711l12.492,5.431c7.75,3.371,16.758-0.181,20.125-7.926c3.367-7.746-0.184-16.755-7.926-20.121
	l-44.316-19.267c-7.746-3.371-16.754,0.181-20.121,7.927l-19.266,44.313c-3.367,7.746,0.18,16.754,7.926,20.121
	c1.984,0.867,4.055,1.272,6.09,1.272c5.906,0,11.531-3.438,14.035-9.198l3.723-8.57c6.137,10.75,14.43,20.285,24.336,27.789
	c16.004,12.121,35.098,18.53,55.223,18.53c33.07,0,63.676-17.938,79.875-46.809C347.684,378.719,345.063,369.398,337.699,365.266z"
	/>
<path fill="#308396" d="M337.699,365.266c-7.367-4.133-16.688-1.512-20.824,5.853c-10.793,19.237-31.18,31.188-53.203,31.188
	c-0.027,0-0.059,0-0.09,0v30.586c0.031,0,0.063,0.004,0.09,0.004c33.07,0,63.68-17.938,79.879-46.809
	C347.684,378.719,345.063,369.398,337.699,365.266z"/>
<path fill="#414952" d="M456.875,143.922H70.293c-8.445,0-15.293-6.848-15.293-15.293c0-40.566,33.004-73.57,73.57-73.57h270.027
	c40.566,0,73.57,33.004,73.57,73.57C472.168,137.074,465.32,143.922,456.875,143.922z"/>
<path fill="#23272B" d="M398.598,55.059H263.582v88.863h193.293c8.445,0,15.293-6.848,15.293-15.293
	C472.168,88.063,439.164,55.059,398.598,55.059z"/>
<path fill="#80D0DD" d="M90.098,189.727H437.07l3.805-45.805H86.293L90.098,189.727z"/>
<path fill="#095B68" d="M263.582,189.727H437.07l3.805-45.805H263.582V189.727z"/>
</svg>
